Coordinates
version=1
nRows=9
nColumns=36
inDegrees=yes

Units are S.I. units (second, meters, Newtons, ...)
If the header above contains a line with 'inDegrees', this indicates whether rotational values are in degrees (yes) or radians (no).

endheader
time	pelvis_tilt	pelvis_list	pelvis_rotation	pelvis_tx	pelvis_ty	pelvis_tz	hip_flexion_r	hip_adduction_r	hip_rotation_r	knee_angle_r	knee_angle_r_beta	ankle_angle_r	subtalar_angle_r	mtp_angle_r	hip_flexion_l	hip_adduction_l	hip_rotation_l	knee_angle_l	knee_angle_l_beta	ankle_angle_l	subtalar_angle_l	mtp_angle_l	lumbar_extension	lumbar_bending	lumbar_rotation	arm_flex_r	arm_add_r	arm_rot_r	elbow_flex_r	pro_sup_r	arm_flex_l	arm_add_l	arm_rot_l	elbow_flex_l	pro_sup_l
      1.32000000	    -18.80635469	     -1.58536326	      2.91601187	     -0.44902836	      1.33869271	     -0.56212747	     31.32717707	     -0.48595645	    -10.41526456	      4.85073950	      0.08466138	    -24.63645779	     -3.26966856	     -7.43532077	     35.07168980	     -2.21332293	     -0.91001401	      7.19543770	      0.12558408	    -20.16465123	      3.19718215	     -7.43532077	     -8.63666503	      5.64486846	     -4.82814273	    -71.96506271	    -20.81880781	    -81.55279659	     50.90216529	    111.25788178	    -91.65460846	    -19.25408290	   -102.59527822	     44.40488647	    106.58798237
      1.33000000	    -18.64924581	     -1.51985525	      3.12030938	     -0.44019229	      1.31655834	     -0.56258561	     31.54664251	     -0.96002391	    -10.93799210	      5.18466571	      0.09048949	    -24.11687624	     -3.24050652	     -7.44213818	     35.55548317	     -2.13204747	     -0.95791130	      7.62608855	      0.13310035	    -20.76952858	      4.12018678	     -7.44213818	     -9.02018537	      5.74939844	     -4.64763220	    -73.13862366	    -18.28485482	    -80.25336075	     49.07973060	    107.99864003	    -90.85890223	    -16.67657764	   -100.18413446	     44.40757382	    103.84204713
      1.34000000	    -18.42813653	     -1.40109825	      3.25183372	     -0.43169869	      1.29359629	     -0.56283824	     31.77478869	     -1.40915661	    -11.03230459	      5.59886498	      0.09771863	    -25.24026621	     -5.22691647	     -7.45147734	     36.03842225	     -2.01660235	     -0.91713565	      8.29081857	      0.14470208	    -21.10409403	      3.90782293	     -7.45147734	     -9.54577482	      5.63468861	     -4.61714627	    -74.19044454	    -16.47566339	    -77.55487820	     46.18408637	    110.52090510	    -90.88093796	    -13.81580247	    -95.94589536	     43.66888908	    106.05246874
      1.35000000	    -18.15725479	     -1.28889164	      3.58977558	     -0.42344482	      1.26996202	     -0.56349983	     32.03873970	     -2.05946759	    -11.75140581	      6.24748333	      0.10903915	    -26.15885223	     -5.76717047	     -7.46191667	     36.61280006	     -1.78640690	     -0.69278258	      9.21471839	      0.16082718	    -21.49640898	      3.89210099	     -7.46191667	    -10.16088374	      5.61284883	     -4.68202345	    -74.82289228	    -14.37082773	    -75.21053426	     43.88142614	    110.15218180	    -90.40048096	    -11.28070046	    -92.30550155	     43.30070023	    105.80504212
      1.36000000	    -17.85644670	     -1.16619662	      3.96928186	     -0.41545135	      1.24558402	     -0.56410678	     32.37499884	     -2.76840385	    -12.43156925	      7.17099902	      0.12515754	    -26.74831913	     -6.07592015	     -7.46397913	     37.33194728	     -1.55463851	     -0.69404055	     10.50198070	      0.18329414	    -21.71033889	      3.97616660	     -7.46397913	    -10.87059917	      5.60432096	     -4.81030634	    -75.04315943	    -12.21866366	    -73.08959501	     41.75835689	    109.57759638	    -89.75694758	     -8.95691274	    -88.43851413	     42.80523394	    105.63965806
      1.37000000	    -17.51546418	     -1.03402941	      4.36662105	     -0.40783504	      1.22048221	     -0.56457534	     32.80135812	     -3.52234340	    -13.08990617	      8.38303080	      0.14631149	    -26.83918282	     -6.27766897	     -7.46547098	     38.21318341	     -1.35787933	     -0.94663122	     12.16048238	      0.21224046	    -22.37101776	      3.98538946	     -7.46547098	    -11.72330340	      5.64208687	     -4.94902652	    -74.75555659	     -9.77809390	    -71.92283298	     40.23830731	    108.60169833	    -88.48788631	     -6.77007672	    -85.74636158	     42.43526854	    104.98938535
      1.38000000	    -17.25060412	     -0.89902591	      4.56250770	     -0.40066088	      1.19433305	     -0.56448453	     33.47149125	     -4.14402390	    -12.88158954	      9.85094620	      0.17193145	    -27.04312749	     -6.73809625	     -7.46728081	     39.29309174	     -1.31622369	     -1.26534709	     14.11118782	      0.24628669	    -23.25234127	      3.62458654	     -7.46728081	    -12.60667592	      5.61359363	     -5.10111963	    -74.28064835	     -7.78368864	    -70.00284196	     38.41850573	    107.84072152	    -87.38120787	     -4.70381999	    -81.38793144	     41.43585713	    104.56393483
      1.39000000	    -16.94808392	     -0.75425650	      4.80407815	     -0.39380898	      1.16735257	     -0.56427245	     34.26775361	     -4.79907687	    -12.43835715	     11.72557164	      0.20464983	    -27.25010815	     -7.19908767	     -7.46942530	     40.46919794	     -1.27665419	     -1.65475357	     16.33338233	      0.28507130	    -24.24933676	      3.00619944	     -7.46942530	    -13.62505475	      5.61063863	     -5.24910187	    -73.61121271	     -5.66988519	    -68.02603840	     36.94427275	    107.37461554	    -85.86775589	     -2.91138778	    -77.48638092	     40.31857343	    104.26010025
      1.40000000	    -16.58797779	     -0.60547625	      5.06180611	     -0.38712299	      1.13962110	     -0.56387411	     35.20627957	     -5.48946661	    -12.21090211	     14.11127052	      0.24628813	    -27.04631951	     -7.08826356	     -7.47122453	     41.78740907	     -1.33744047	     -2.31176375	     19.04373855	      0.33237594	    -24.87425511	      2.78489644	     -7.47122453	    -14.74844802	      5.59830872	     -5.38351326	    -72.53979794	     -3.40928650	    -67.05668667	     35.91011086	    106.04372573	    -83.65553631	     -0.94842822	    -75.51704935	     39.88302686	    103.16213548
